<svg xmlns="http://www.w3.org/2000/svg" xmlns:xlink="http://www.w3.org/1999/xlink" width="256" zoomAndPan="magnify" viewBox="0 0 192 104.249996" height="139" preserveAspectRatio="xMidYMid meet" version="1.0"><path fill="#ffffff" d="M 190.308594 50.671875 C 190.234375 50.222656 190.308594 49.699219 190.234375 49.25 C 190.234375 48.355469 190.234375 47.386719 190.160156 46.488281 C 190.007812 44.25 189.636719 42.085938 189.113281 39.84375 C 187.914062 34.320312 185.824219 29.019531 182.980469 24.089844 C 180.515625 19.835938 177.375 16.027344 173.636719 12.816406 C 170.648438 10.203125 167.433594 7.964844 163.84375 6.246094 C 161.453125 5.054688 158.910156 4.082031 156.292969 3.261719 C 151.585938 1.84375 146.652344 1.097656 141.71875 0.945312 C 137.828125 0.871094 133.941406 0.945312 130.054688 0.945312 C 129.605469 0.945312 129.160156 1.246094 129.007812 1.617188 C 127.8125 4.304688 126.617188 7.070312 125.496094 9.757812 C 122.730469 16.175781 119.890625 22.597656 117.121094 29.019531 C 114.582031 34.84375 112.039062 40.664062 109.496094 46.5625 C 107.179688 51.863281 104.863281 57.164062 102.621094 62.390625 C 101.648438 64.632812 100.675781 66.945312 99.628906 69.1875 C 99.332031 69.78125 99.257812 70.378906 99.257812 70.976562 C 99.257812 73.964844 99.257812 76.875 99.257812 79.863281 C 99.257812 80.460938 99.257812 80.460938 98.660156 80.460938 L 89.539062 80.460938 C 89.015625 80.460938 89.015625 80.460938 89.238281 79.9375 C 89.3125 79.863281 89.3125 79.710938 89.390625 79.636719 C 90.808594 76.351562 92.230469 73.066406 93.648438 69.707031 C 95.445312 65.453125 97.3125 61.273438 99.179688 57.015625 C 101.796875 50.96875 104.414062 44.996094 107.03125 38.949219 L 113.011719 25.210938 C 115.105469 20.359375 117.199219 15.503906 119.289062 10.652344 C 120.5625 7.667969 121.832031 4.679688 123.179688 1.769531 C 123.550781 0.871094 123.550781 0.796875 122.578125 0.796875 L 51.5625 0.796875 C 51.039062 0.796875 50.589844 1.246094 50.589844 1.769531 L 50.589844 21.851562 C 50.589844 22.898438 50.589844 22.898438 51.636719 22.898438 L 83.332031 22.898438 C 83.558594 22.898438 83.632812 23.046875 83.558594 23.195312 C 83.484375 23.269531 83.484375 23.417969 83.410156 23.492188 C 81.464844 27.75 79.519531 32.003906 77.578125 36.261719 L 70.324219 52.238281 C 68.007812 57.316406 65.765625 62.390625 63.449219 67.46875 C 63.375 67.691406 63.300781 67.917969 63.074219 67.992188 C 63 67.917969 62.925781 67.765625 62.851562 67.691406 C 61.65625 65.078125 60.457031 62.464844 59.261719 59.777344 C 57.992188 56.867188 56.644531 54.03125 55.375 51.117188 C 54.03125 48.207031 52.757812 45.292969 51.414062 42.382812 C 50.140625 39.472656 48.796875 36.632812 47.527344 33.722656 L 43.5625 24.988281 C 42.292969 22.074219 40.949219 19.238281 39.675781 16.328125 C 38.332031 13.414062 36.984375 10.429688 35.714844 7.515625 C 34.742188 5.425781 33.769531 3.335938 32.875 1.171875 C 32.648438 0.722656 32.425781 0.5 31.902344 0.5 C 22.183594 0.5 12.390625 0.5 2.671875 0.5 C 2.449219 0.5 2.222656 0.5 2.074219 0.648438 L 2.074219 0.722656 C 2.074219 0.722656 2.148438 0.796875 2.148438 0.796875 C 3.421875 3.710938 4.765625 6.621094 6.113281 9.53125 C 7.605469 12.816406 9.101562 16.101562 10.597656 19.386719 L 15.828125 31.035156 C 17.625 34.917969 19.34375 38.875 21.136719 42.757812 C 23.082031 47.011719 24.949219 51.265625 26.894531 55.523438 C 28.988281 60.152344 31.078125 64.78125 33.171875 69.410156 C 35.117188 73.738281 37.136719 78.070312 39.003906 82.402344 C 41.097656 87.253906 43.265625 92.105469 45.359375 96.960938 C 46.03125 98.601562 46.777344 100.167969 47.449219 101.8125 C 47.527344 102.035156 47.675781 102.261719 47.972656 102.183594 L 143.136719 102.183594 C 144.257812 102.183594 145.304688 102.183594 146.425781 102.035156 C 149.941406 101.664062 153.378906 100.992188 156.742188 99.945312 C 161.226562 98.601562 165.414062 96.660156 169.300781 94.046875 C 172.664062 91.808594 175.65625 89.121094 178.273438 86.132812 C 180.8125 83.148438 183.058594 79.863281 184.777344 76.425781 C 186.269531 73.589844 187.394531 70.53125 188.289062 67.46875 C 189.484375 63.214844 190.382812 58.882812 190.308594 54.402344 C 190.308594 53.957031 190.234375 53.507812 190.382812 53.058594 C 190.308594 52.535156 190.308594 51.640625 190.308594 50.671875 Z M 163.621094 63.0625 C 162.351562 66.199219 160.628906 69.109375 158.238281 71.574219 C 155.023438 74.933594 151.136719 77.175781 146.578125 78.21875 C 144.410156 78.742188 142.164062 79.039062 139.921875 78.964844 L 124.148438 78.964844 C 124.148438 78.890625 124.148438 78.816406 124.074219 78.742188 C 124.074219 78.59375 124.074219 78.367188 124.074219 78.21875 L 124.074219 25.433594 C 124.074219 25.210938 124 24.914062 124.148438 24.761719 C 124.375 24.6875 124.597656 24.761719 124.824219 24.761719 L 139.773438 24.761719 C 141.867188 24.761719 143.886719 24.988281 145.902344 25.433594 C 151.585938 26.703125 156.21875 29.691406 159.734375 34.320312 C 161.902344 37.15625 163.394531 40.292969 164.367188 43.726562 C 164.964844 45.816406 165.339844 47.90625 165.488281 50 C 165.9375 54.402344 165.265625 58.882812 163.621094 63.0625 Z M 163.621094 63.0625 " fill-opacity="1" fill-rule="nonzero"/></svg>